<?xml version="1.0" encoding="utf-8"?>
<!-- Generator: Adobe Illustrator 22.0.0, SVG Export Plug-In . SVG Version: 6.00 Build 0)  -->
<svg version="1.1" id="Icon_Set" xmlns="http://www.w3.org/2000/svg" xmlns:xlink="http://www.w3.org/1999/xlink" x="0px" y="0px"
	 viewBox="0 0 64 64" style="enable-background:new 0 0 64 64;" xml:space="preserve">
<style type="text/css">
	.st0{fill:#40C4FF;}
	.st1{fill:#263238;}
	.st2{fill:#FFD740;}
	.st3{fill:#FF5252;}
	.st4{fill:#4DB6AC;}
	.st5{fill:#FFFFFF;}
	.st6{fill:#4FC3F7;}
	.st7{fill:#37474F;}
</style>
<g>
	<g>
		<path class="st1" d="M41.871,7.5h-4c-0.276,0-0.5-0.224-0.5-0.5s0.224-0.5,0.5-0.5h4c0.276,0,0.5,0.224,0.5,0.5
			S42.147,7.5,41.871,7.5z"/>
	</g>
	<g>
		<path class="st1" d="M39.871,9.5c-0.276,0-0.5-0.224-0.5-0.5V5c0-0.276,0.224-0.5,0.5-0.5s0.5,0.224,0.5,0.5v4
			C40.371,9.276,40.147,9.5,39.871,9.5z"/>
	</g>
	<g>
		<path class="st1" d="M46.371,13.5h-4c-0.276,0-0.5-0.224-0.5-0.5s0.224-0.5,0.5-0.5h4c0.276,0,0.5,0.224,0.5,0.5
			S46.647,13.5,46.371,13.5z"/>
	</g>
	<g>
		<path class="st1" d="M44.371,15.5c-0.276,0-0.5-0.224-0.5-0.5v-4c0-0.276,0.224-0.5,0.5-0.5s0.5,0.224,0.5,0.5v4
			C44.871,15.276,44.647,15.5,44.371,15.5z"/>
	</g>
	<g>
		<path class="st1" d="M56.37,51.5h-48c-0.183,0-0.35-0.099-0.438-0.259c-0.088-0.159-0.083-0.354,0.015-0.508l5.053-8
			c0.092-0.145,0.251-0.233,0.423-0.233h37.896c0.172,0,0.331,0.088,0.423,0.233l5.052,8c0.098,0.154,0.103,0.349,0.015,0.508
			C56.72,51.401,56.553,51.5,56.37,51.5z M9.277,50.5h46.186l-4.42-7H13.698L9.277,50.5z"/>
	</g>
	<g>
		<polygon class="st4" points="14.686,41 50.055,41 45.002,33 19.739,33 		"/>
		<path class="st1" d="M50.055,41.5H14.687c-0.183,0-0.35-0.099-0.438-0.259c-0.088-0.159-0.083-0.354,0.015-0.508l5.053-8
			c0.092-0.145,0.251-0.233,0.423-0.233h25.263c0.172,0,0.331,0.088,0.423,0.233l5.053,8c0.098,0.154,0.103,0.349,0.015,0.508
			C50.404,41.401,50.237,41.5,50.055,41.5z M15.594,40.5h33.554l-4.421-7H20.015L15.594,40.5z"/>
	</g>
	<g>
		<polygon class="st2" points="21.002,31 43.739,31 38.686,23 26.055,23 		"/>
		<path class="st1" d="M43.739,31.5H21.002c-0.183,0-0.35-0.099-0.438-0.259c-0.088-0.159-0.083-0.354,0.015-0.508l5.053-8
			c0.092-0.145,0.251-0.233,0.423-0.233h12.632c0.172,0,0.331,0.088,0.423,0.233l5.053,8c0.098,0.154,0.103,0.349,0.015,0.508
			C44.089,31.401,43.922,31.5,43.739,31.5z M21.909,30.5h20.923l-4.421-7H26.33L21.909,30.5z"/>
	</g>
	<g>
		<polygon class="st3" points="32.37,13 27.318,21 37.423,21 		"/>
		<path class="st1" d="M37.423,21.5H27.318c-0.183,0-0.35-0.099-0.438-0.259c-0.088-0.159-0.083-0.354,0.015-0.508l5.052-8
			c0.184-0.29,0.662-0.29,0.846,0l5.053,8c0.098,0.154,0.103,0.349,0.015,0.508C37.772,21.401,37.605,21.5,37.423,21.5z
			 M28.226,20.5h8.29l-4.146-6.563L28.226,20.5z"/>
	</g>
	<g>
		<path class="st1" d="M2.5,32.5h-2C0.224,32.5,0,32.276,0,32s0.224-0.5,0.5-0.5h2C2.776,31.5,3,31.724,3,32S2.776,32.5,2.5,32.5z"
			/>
	</g>
	<g>
		<path class="st1" d="M14.5,32.5h-10C4.224,32.5,4,32.276,4,32s0.224-0.5,0.5-0.5h10c0.276,0,0.5,0.224,0.5,0.5
			S14.776,32.5,14.5,32.5z"/>
	</g>
	<g>
		<path class="st1" d="M63.5,32.5h-2c-0.276,0-0.5-0.224-0.5-0.5s0.224-0.5,0.5-0.5h2c0.276,0,0.5,0.224,0.5,0.5
			S63.776,32.5,63.5,32.5z"/>
	</g>
	<g>
		<path class="st1" d="M59.5,32.5h-10c-0.276,0-0.5-0.224-0.5-0.5s0.224-0.5,0.5-0.5h10c0.276,0,0.5,0.224,0.5,0.5
			S59.776,32.5,59.5,32.5z"/>
	</g>
</g>
</svg>
